<svg width="155" height="155" viewBox="0 0 155 155" fill="none" xmlns="http://www.w3.org/2000/svg">
<circle cx="77.5" cy="77.5" r="74.5" fill="#1472FF" stroke="#2E385E" stroke-width="6"/>
<line x1="80" x2="80" y2="155" stroke="#2E385E" stroke-width="6"/>
<path fill-rule="evenodd" clip-rule="evenodd" d="M41.1534 103.842L41.1533 103.842V104.153H40.8424L40.8424 104.153H26V104.337L33.3302 111.73L26 119.123V119.307H40.8424L40.8425 119.307H41.1533V119.618L41.1533 119.618V134.46H41.3369L48.73 127.13L56.1231 134.46H56.3066V119.618L56.3066 119.618V119.307H56.3067L56.3067 119.307H56.6174L56.6177 119.307H71.46V119.123L64.1298 111.73L71.46 104.337V104.154H56.6179L56.6176 104.153H56.3068V103.842L56.3067 103.842V89H56.123L48.7301 96.33L41.3371 89H41.1534V103.842ZM41.1533 104.153H56.3066V104.153H41.1534V104.153H41.1533V104.153Z" fill="#2E385E"/>
<path fill-rule="evenodd" clip-rule="evenodd" d="M120.333 53.1622L120.333 53.1623L120.333 53.3333H120.162L120.162 53.3333H112V53.4342L116.031 57.5L112 61.5657V61.6666L120.162 61.6666L120.162 61.6667L120.333 61.6666L120.333 61.8376L120.333 70H120.434L124.5 65.9689L128.566 70H128.667V61.8376L128.667 61.6667H128.667L128.667 61.6669H128.837L128.838 61.6666H137V61.5657L132.969 57.5L137 53.4343V53.3336H128.838L128.838 53.3333H128.667V53.1623L128.667 53.1622V45H128.566L124.5 49.031L120.434 45H120.333V53.1622ZM120.333 53.3334L120.333 53.3333V53.3333H120.333V53.3334Z" fill="#2E385E"/>
<path fill-rule="evenodd" clip-rule="evenodd" d="M97.6667 34.5298L97.6667 34.5298V34.6666H97.5299L97.5299 34.6667H91V34.7474L94.2249 38L91 41.2526V41.3333H97.5299L97.5299 41.3333H97.6667V41.4701L97.6667 48H97.7474L101 44.7751L104.253 48H104.333V41.4701L104.333 41.3334H104.333L104.333 41.3336H104.47L104.47 41.3333H111V41.2526L107.775 38L111 34.7475V34.6669H104.47L104.47 34.6666H104.333V34.5298L104.333 34.5298V28H104.253L101 31.2248L97.7475 28H97.6667V34.5298ZM97.6667 34.6667L97.6667 34.6667V34.6667H97.6667V34.6667Z" fill="#2E385E"/>
<line y1="81" x2="155" y2="81" stroke="#2E385E" stroke-width="6"/>
<line x1="52.3493" y1="9.13435" x2="79.3493" y2="43.1344" stroke="#2E385E" stroke-width="6"/>
<line x1="40.3493" y1="13.1344" x2="79.7891" y2="62.7992" stroke="#2E385E" stroke-width="6"/>
<line x1="64.3493" y1="5.13435" x2="80.7795" y2="25.8241" stroke="#2E385E" stroke-width="6"/>
<line x1="81.3493" y1="113.134" x2="106.486" y2="144.788" stroke="#2E385E" stroke-width="6"/>
<line x1="81.1216" y1="95.2803" x2="116.628" y2="139.127" stroke="#2E385E" stroke-width="6"/>
<line x1="81.3493" y1="131.134" x2="97.7795" y2="151.824" stroke="#2E385E" stroke-width="6"/>
</svg>
